<?xml version="1.0" standalone="no"?>
<!DOCTYPE svg PUBLIC "-//W3C//DTD SVG 20010904//EN"
 "http://www.w3.org/TR/2001/REC-SVG-20010904/DTD/svg10.dtd">
<svg version="1.0" xmlns="http://www.w3.org/2000/svg"
 width="500.000000pt" height="500.000000pt" viewBox="0 0 500.000000 500.000000"
 preserveAspectRatio="xMidYMid meet">

<g transform="translate(0.000000,500.000000) scale(0.100000,-0.100000)"
fill="#000000" stroke="none">
<path d="M1343 4050 c-19 -8 -23 -17 -23 -59 0 -47 -2 -50 -29 -56 -16 -3 -34
-12 -40 -19 -8 -9 -10 -195 -9 -612 l3 -599 287 -3 287 -2 3 62 3 63 38 3 37
3 0 275 0 274 88 0 c227 0 467 -68 628 -178 75 -50 180 -161 228 -240 134
-222 174 -611 90 -898 -36 -127 -64 -173 -150 -253 -175 -160 -424 -241 -746
-241 l-138 0 0 335 0 335 -290 0 -290 0 0 -60 0 -60 -40 0 -40 0 0 -604 c0
-549 1 -605 17 -617 36 -30 741 -18 973 16 481 72 850 261 1058 543 66 89 172
272 216 371 130 296 167 691 100 1081 -50 292 -162 519 -348 706 -236 236
-550 367 -1011 420 -158 18 -868 30 -902 14z"/>
</g>
</svg>
